<svg width="26" height="26" viewBox="0 0 26 26" fill="none" xmlns="http://www.w3.org/2000/svg">
<g clip-path="url(#clip0_5_11)">
<path d="M7.27083 0.5C6.3039 0.5 5.37657 0.884113 4.69284 1.56784C4.00911 2.25157 3.625 3.1789 3.625 4.14583V21.8542C3.625 22.8211 4.00911 23.7484 4.69284 24.4322C5.37657 25.1159 6.3039 25.5 7.27083 25.5C8.23777 25.5 9.1651 25.1159 9.84883 24.4322C10.5326 23.7484 10.9167 22.8211 10.9167 21.8542V4.14583C10.9167 3.1789 10.5326 2.25157 9.84883 1.56784C9.1651 0.884113 8.23777 0.5 7.27083 0.5V0.5ZM8.83333 21.8542C8.83333 22.2686 8.66871 22.666 8.37569 22.959C8.08266 23.252 7.68523 23.4167 7.27083 23.4167C6.85643 23.4167 6.459 23.252 6.16598 22.959C5.87295 22.666 5.70833 22.2686 5.70833 21.8542V4.14583C5.70833 3.73143 5.87295 3.334 6.16598 3.04098C6.459 2.74795 6.85643 2.58333 7.27083 2.58333C7.68523 2.58333 8.08266 2.74795 8.37569 3.04098C8.66871 3.334 8.83333 3.73143 8.83333 4.14583V21.8542Z" fill="#EDF5FC"/>
<path d="M18.7291 0.5C17.7622 0.5 16.8348 0.884113 16.1511 1.56784C15.4674 2.25157 15.0833 3.1789 15.0833 4.14583V21.8542C15.0833 22.8211 15.4674 23.7484 16.1511 24.4322C16.8348 25.1159 17.7622 25.5 18.7291 25.5C19.696 25.5 20.6234 25.1159 21.3071 24.4322C21.9908 23.7484 22.3749 22.8211 22.3749 21.8542V4.14583C22.3749 3.1789 21.9908 2.25157 21.3071 1.56784C20.6234 0.884113 19.696 0.5 18.7291 0.5V0.5ZM20.2916 21.8542C20.2916 22.2686 20.127 22.666 19.8339 22.959C19.5409 23.252 19.1435 23.4167 18.7291 23.4167C18.3147 23.4167 17.9173 23.252 17.6242 22.959C17.3312 22.666 17.1666 22.2686 17.1666 21.8542V4.14583C17.1666 3.73143 17.3312 3.334 17.6242 3.04098C17.9173 2.74795 18.3147 2.58333 18.7291 2.58333C19.1435 2.58333 19.5409 2.74795 19.8339 3.04098C20.127 3.334 20.2916 3.73143 20.2916 4.14583V21.8542Z" fill="#EDF5FC"/>
</g>
<defs>
<clipPath id="clip0_5_11">
<rect width="25" height="25" fill="white" transform="translate(0.5 0.5)"/>
</clipPath>
</defs>
</svg>
