<svg width="25" height="25" viewBox="0 0 25 25" fill="none" xmlns="http://www.w3.org/2000/svg">
<path d="M23.9458 11.4583C23.6696 11.4583 23.4046 11.5681 23.2093 11.7634C23.0139 11.9588 22.9042 12.2237 22.9042 12.5C22.9126 14.9222 22.0796 17.2721 20.5474 19.1481C19.0153 21.0241 16.8791 22.3097 14.5041 22.7852C12.129 23.2607 9.66255 22.8966 7.52624 21.7551C5.38993 20.6135 3.7164 18.7655 2.79171 16.5267C1.86701 14.288 1.74855 11.7976 2.45659 9.48126C3.16462 7.16488 4.65518 5.16631 6.67349 3.82716C8.69181 2.48801 11.1126 1.89141 13.522 2.13934C15.9315 2.38728 18.18 3.46435 19.8833 5.18646C19.8491 5.1958 19.8143 5.20311 19.7792 5.20833H16.6542C16.3779 5.20833 16.113 5.31808 15.9176 5.51343C15.7223 5.70878 15.6125 5.97373 15.6125 6.25C15.6125 6.52627 15.7223 6.79122 15.9176 6.98657C16.113 7.18192 16.3779 7.29167 16.6542 7.29167H19.7792C20.608 7.29167 21.4028 6.96243 21.9889 6.37638C22.5749 5.79032 22.9042 4.99547 22.9042 4.16667V1.04167C22.9042 0.7654 22.7944 0.500448 22.5991 0.305097C22.4037 0.109747 22.1388 0 21.8625 0C21.5862 0 21.3213 0.109747 21.1259 0.305097C20.9306 0.500448 20.8208 0.7654 20.8208 1.04167V3.19271C18.6881 1.28597 15.9655 0.168923 13.1082 0.0282319C10.2508 -0.11246 7.43172 0.731726 5.12196 2.41972C2.8122 4.10772 1.15171 6.53727 0.417947 9.3024C-0.315813 12.0675 -0.0783872 15.0007 1.09055 17.6118C2.25949 20.2229 4.28912 22.3538 6.8403 23.6483C9.39148 24.9429 12.3096 25.3226 15.1072 24.7242C17.9047 24.1258 20.4121 22.5854 22.2105 20.3605C24.0088 18.1355 24.9891 15.3608 24.9875 12.5C24.9875 12.2237 24.8778 11.9588 24.6824 11.7634C24.4871 11.5681 24.2221 11.4583 23.9458 11.4583Z" fill="#EDF5FC"/>
<path d="M9.27148 8.42188V17H8.1875V9.77539L6.00195 10.5723V9.59375L9.10156 8.42188H9.27148ZM17.8145 12.0547V13.3555C17.8145 14.0547 17.752 14.6445 17.627 15.125C17.502 15.6055 17.3223 15.9922 17.0879 16.2852C16.8535 16.5781 16.5703 16.791 16.2383 16.9238C15.9102 17.0527 15.5391 17.1172 15.125 17.1172C14.7969 17.1172 14.4941 17.0762 14.2168 16.9941C13.9395 16.9121 13.6895 16.7812 13.4668 16.6016C13.248 16.418 13.0605 16.1797 12.9043 15.8867C12.748 15.5938 12.6289 15.2383 12.5469 14.8203C12.4648 14.4023 12.4238 13.9141 12.4238 13.3555V12.0547C12.4238 11.3555 12.4863 10.7695 12.6113 10.2969C12.7402 9.82422 12.9219 9.44531 13.1562 9.16016C13.3906 8.87109 13.6719 8.66406 14 8.53906C14.332 8.41406 14.7031 8.35156 15.1133 8.35156C15.4453 8.35156 15.75 8.39258 16.0273 8.47461C16.3086 8.55273 16.5586 8.67969 16.7773 8.85547C16.9961 9.02734 17.1816 9.25781 17.334 9.54688C17.4902 9.83203 17.6094 10.1816 17.6914 10.5957C17.7734 11.0098 17.8145 11.4961 17.8145 12.0547ZM16.7246 13.5312V11.873C16.7246 11.4902 16.7012 11.1543 16.6543 10.8652C16.6113 10.5723 16.5469 10.3223 16.4609 10.1152C16.375 9.9082 16.2656 9.74023 16.1328 9.61133C16.0039 9.48242 15.8535 9.38867 15.6816 9.33008C15.5137 9.26758 15.3242 9.23633 15.1133 9.23633C14.8555 9.23633 14.627 9.28516 14.4277 9.38281C14.2285 9.47656 14.0605 9.62695 13.9238 9.83398C13.791 10.041 13.6895 10.3125 13.6191 10.6484C13.5488 10.9844 13.5137 11.3926 13.5137 11.873V13.5312C13.5137 13.9141 13.5352 14.252 13.5781 14.5449C13.625 14.8379 13.6934 15.0918 13.7832 15.3066C13.873 15.5176 13.9824 15.6914 14.1113 15.8281C14.2402 15.9648 14.3887 16.0664 14.5566 16.1328C14.7285 16.1953 14.918 16.2266 15.125 16.2266C15.3906 16.2266 15.623 16.1758 15.8223 16.0742C16.0215 15.9727 16.1875 15.8145 16.3203 15.5996C16.457 15.3809 16.5586 15.1016 16.625 14.7617C16.6914 14.418 16.7246 14.0078 16.7246 13.5312Z" fill="white"/>
</svg>
