<svg width="25" height="25" viewBox="0 0 25 25" fill="none" xmlns="http://www.w3.org/2000/svg">
<path d="M24.8087 10.5542C24.4511 8.28941 23.4775 6.16664 21.9944 4.41809C20.5113 2.66954 18.5759 1.36258 16.3998 0.640208C14.2238 -0.0821631 11.891 -0.192117 9.65666 0.322377C7.42233 0.836871 5.37254 1.95599 3.73157 3.55729V1.04167C3.73157 0.765399 3.62182 0.500447 3.42647 0.305097C3.23112 0.109747 2.96617 0 2.6899 0C2.41363 0 2.14868 0.109747 1.95333 0.305097C1.75798 0.500447 1.64823 0.765399 1.64823 1.04167V5.20833C1.64823 5.76087 1.86773 6.29077 2.25843 6.68147C2.64913 7.07217 3.17903 7.29167 3.73157 7.29167H7.89823C8.1745 7.29167 8.43945 7.18192 8.6348 6.98657C8.83015 6.79122 8.9399 6.52627 8.9399 6.25C8.9399 5.97373 8.83015 5.70878 8.6348 5.51343C8.43945 5.31808 8.1745 5.20833 7.89823 5.20833H5.03261C6.69719 3.51836 8.88919 2.44781 11.2454 2.17405C13.6017 1.90029 15.9807 2.43975 17.9885 3.70306C19.9962 4.96636 21.512 6.87768 22.2849 9.12034C23.0577 11.363 23.0412 13.8024 22.2379 16.0344C21.4347 18.2664 19.8931 20.1569 17.8684 21.3929C15.8438 22.6288 13.4576 23.1359 11.1053 22.8302C8.75298 22.5245 6.5757 21.4243 4.9342 19.7119C3.29271 17.9995 2.28551 15.7777 2.07948 13.4146C2.05247 13.1607 1.93147 12.926 1.74026 12.7568C1.54905 12.5876 1.30146 12.496 1.04615 12.5C0.900468 12.5004 0.756465 12.5311 0.623315 12.5902C0.490165 12.6494 0.370789 12.7356 0.272792 12.8433C0.174795 12.9511 0.100327 13.0782 0.0541323 13.2163C0.00793733 13.3545 -0.00897142 13.5008 0.0044834 13.6458C0.169208 15.3057 0.664459 16.9157 1.46106 18.3812C2.25766 19.8466 3.3395 21.1379 4.64284 22.1787C5.94618 23.2196 7.44466 23.9891 9.05 24.442C10.6553 24.8948 12.3351 25.0217 13.9902 24.8153C15.6454 24.6089 17.2425 24.0733 18.6875 23.2401C20.1324 22.4069 21.396 21.2929 22.4038 19.9638C23.4116 18.6347 24.1432 17.1174 24.5555 15.5012C24.9678 13.885 25.0524 12.2026 24.8045 10.5531L24.8087 10.5542Z" fill="#EDF5FC"/>
<path d="M9.27148 8.42188V17H8.1875V9.77539L6.00195 10.5723V9.59375L9.10156 8.42188H9.27148ZM17.8145 12.0547V13.3555C17.8145 14.0547 17.752 14.6445 17.627 15.125C17.502 15.6055 17.3223 15.9922 17.0879 16.2852C16.8535 16.5781 16.5703 16.791 16.2383 16.9238C15.9102 17.0527 15.5391 17.1172 15.125 17.1172C14.7969 17.1172 14.4941 17.0762 14.2168 16.9941C13.9395 16.9121 13.6895 16.7812 13.4668 16.6016C13.248 16.418 13.0605 16.1797 12.9043 15.8867C12.748 15.5938 12.6289 15.2383 12.5469 14.8203C12.4648 14.4023 12.4238 13.9141 12.4238 13.3555V12.0547C12.4238 11.3555 12.4863 10.7695 12.6113 10.2969C12.7402 9.82422 12.9219 9.44531 13.1562 9.16016C13.3906 8.87109 13.6719 8.66406 14 8.53906C14.332 8.41406 14.7031 8.35156 15.1133 8.35156C15.4453 8.35156 15.75 8.39258 16.0273 8.47461C16.3086 8.55273 16.5586 8.67969 16.7773 8.85547C16.9961 9.02734 17.1816 9.25781 17.334 9.54688C17.4902 9.83203 17.6094 10.1816 17.6914 10.5957C17.7734 11.0098 17.8145 11.4961 17.8145 12.0547ZM16.7246 13.5312V11.873C16.7246 11.4902 16.7012 11.1543 16.6543 10.8652C16.6113 10.5723 16.5469 10.3223 16.4609 10.1152C16.375 9.9082 16.2656 9.74023 16.1328 9.61133C16.0039 9.48242 15.8535 9.38867 15.6816 9.33008C15.5137 9.26758 15.3242 9.23633 15.1133 9.23633C14.8555 9.23633 14.627 9.28516 14.4277 9.38281C14.2285 9.47656 14.0605 9.62695 13.9238 9.83398C13.791 10.041 13.6895 10.3125 13.6191 10.6484C13.5488 10.9844 13.5137 11.3926 13.5137 11.873V13.5312C13.5137 13.9141 13.5352 14.252 13.5781 14.5449C13.625 14.8379 13.6934 15.0918 13.7832 15.3066C13.873 15.5176 13.9824 15.6914 14.1113 15.8281C14.2402 15.9648 14.3887 16.0664 14.5566 16.1328C14.7285 16.1953 14.918 16.2266 15.125 16.2266C15.3906 16.2266 15.623 16.1758 15.8223 16.0742C16.0215 15.9727 16.1875 15.8145 16.3203 15.5996C16.457 15.3809 16.5586 15.1016 16.625 14.7617C16.6914 14.418 16.7246 14.0078 16.7246 13.5312Z" fill="white"/>
</svg>
