<svg width="17" height="15" viewBox="0 0 17 15" fill="none" xmlns="http://www.w3.org/2000/svg">
<path d="M0.5 5.39773V10.2927H3.83333L8 14.3718V1.31861L3.83333 5.39773H0.5ZM11.75 7.8452C11.75 6.4012 10.9 5.16114 9.66667 4.55743V11.1248C10.9 10.5293 11.75 9.28921 11.75 7.8452ZM9.66667 0.69043V2.37103C12.075 3.07264 13.8333 5.25904 13.8333 7.8452C13.8333 10.4314 12.075 12.6178 9.66667 13.3194V15C13.0083 14.2576 15.5 11.3369 15.5 7.8452C15.5 4.35348 13.0083 1.43283 9.66667 0.69043V0.69043Z" fill="white"/>
<path d="M0.658691 14.3403L15.6587 0.634493" stroke="#BDAE82"/>
</svg>
